<svg width="46" height="46" viewBox="0 0 46 46" fill="none" xmlns="http://www.w3.org/2000/svg">
<path fill-rule="evenodd" clip-rule="evenodd" d="M44 23C44 34.598 34.598 44 23 44C11.402 44 2 34.598 2 23C2 11.402 11.402 2 23 2C30.3697 2 36.8527 5.79624 40.6002 11.5399L36.2578 14.04C33.3813 9.792 28.5167 7 23 7C14.1634 7 7 14.1634 7 23H9C9 15.268 15.268 9 23 9C27.7754 9 31.9924 11.391 34.5192 15.0411L24.8399 20.614C24.3393 20.2289 23.7124 20 23.032 20C21.3928 20 20.0639 21.3288 20.0639 22.968C20.0639 24.6072 21.3928 25.9361 23.032 25.9361C24.6712 25.9361 26 24.6072 26 22.968C26 22.698 25.9639 22.4363 25.8963 22.1876L35.4881 16.6651C36.455 18.5673 37 20.72 37 23H39C39 20.3565 38.3589 17.8628 37.2238 15.6658L41.5612 13.1685C43.118 16.1017 44 19.4478 44 23ZM46 23C46 35.7025 35.7025 46 23 46C10.2975 46 0 35.7025 0 23C0 10.2975 10.2975 0 23 0C31.1108 0 38.2411 4.19834 42.3361 10.5404L45.0116 9L45.9551 10.6387L43.2957 12.1698C45.0215 15.3972 46 19.0843 46 23ZM24 22.968C24 22.4334 23.5666 22 23.032 22C22.4973 22 22.0639 22.4334 22.0639 22.968C22.0639 23.5027 22.4973 23.9361 23.032 23.9361C23.5666 23.9361 24 23.5027 24 22.968Z" fill="#131314"/>
</svg>
