<svg width="48" height="48" viewBox="0 0 48 48" fill="none" xmlns="http://www.w3.org/2000/svg">
<path fill-rule="evenodd" clip-rule="evenodd" d="M1.0025 16.0823C1.0065 16.1443 1.04052 16.1943 1.05652 16.2543C1.08053 16.3484 1.09053 16.4444 1.14255 16.5304C1.15255 16.5484 1.17456 16.5544 1.18656 16.5724C1.19657 16.5884 1.19457 16.6084 1.20657 16.6224L23.2137 44.6316C23.2578 44.6876 23.3218 44.7156 23.3738 44.7596C23.4158 44.7936 23.4478 44.8296 23.4938 44.8556C23.6479 44.9497 23.8159 45.0137 24 45.0137C24.1841 45.0137 24.3521 44.9497 24.5062 44.8576C24.5522 44.8296 24.5842 44.7956 24.6262 44.7616C24.6782 44.7176 24.7422 44.6876 24.7863 44.6336L46.7934 16.6244C46.8054 16.6084 46.8034 16.5884 46.8134 16.5744C46.8254 16.5584 46.8455 16.5504 46.8575 16.5324C46.9095 16.4484 46.9175 16.3504 46.9435 16.2563C46.9595 16.1963 46.9915 16.1463 46.9975 16.0843C47.0095 15.9322 46.9775 15.7842 46.9195 15.6401C46.9095 15.6161 46.9175 15.5901 46.9075 15.5681C46.9075 15.5661 46.9055 15.5661 46.9035 15.5641C46.9035 15.5621 46.9035 15.5601 46.9015 15.5581L40.8995 3.55418C40.8875 3.53217 40.8635 3.52217 40.8515 3.50016C40.7835 3.38613 40.6954 3.29009 40.5854 3.21007C40.5474 3.18206 40.5134 3.15605 40.4714 3.13404C40.4414 3.11804 40.4214 3.09203 40.3893 3.07803C40.2653 3.02601 40.1373 3.004 40.0112 3.002C40.0092 3.002 40.0072 3 40.0052 3H40.0032C40.0032 3 40.0032 3 40.0012 3H8.00479C8.00078 3 7.99878 3 7.99478 3H7.99278C7.86474 3 7.7347 3.02401 7.61066 3.07803C7.57865 3.09203 7.55864 3.11804 7.52863 3.13404C7.48662 3.15605 7.45261 3.18206 7.41459 3.21007C7.30456 3.29009 7.21653 3.38613 7.14851 3.50016C7.1365 3.52017 7.11049 3.53017 7.10049 3.55218L1.09853 15.5561C1.09853 15.5581 1.09853 15.5601 1.09653 15.5621C1.09653 15.5641 1.09453 15.5641 1.09253 15.5661C1.08253 15.5901 1.09053 15.6141 1.08053 15.6381C1.02251 15.7822 0.990499 15.9302 1.0025 16.0823ZM14.4629 17.0046H33.5351L24 41.2765L14.4629 17.0046ZM15.2712 15.0039L24 5.48076L32.7289 15.0039H15.2712ZM34.6815 14.1737L26.2748 5.00066H38.5047L34.6815 14.1737ZM13.3185 14.1737L9.49527 5.00066H21.7253L13.3185 14.1737ZM20.5789 38.0415L4.05153 17.0046H12.3162L20.5789 38.0415ZM27.4211 38.0415L35.6858 17.0046H43.9505L27.4211 38.0415ZM36.5041 15.004L40.0872 6.40318L44.3886 15.004H36.5041ZM7.91272 6.40318L11.4959 15.004H3.61132L7.91272 6.40318Z" fill="#131314"/>
</svg>
