<svg width="48" height="49" viewBox="0 0 48 49" fill="none" xmlns="http://www.w3.org/2000/svg">
<path fill-rule="evenodd" clip-rule="evenodd" d="M2 2.19922H11V4.19922H4V11.1992H2V2.19922Z" fill="black"/>
<path fill-rule="evenodd" clip-rule="evenodd" d="M46 46.1992L37 46.1992L37 44.1992L44 44.1992L44 37.1992L46 37.1992L46 46.1992Z" fill="black"/>
<path fill-rule="evenodd" clip-rule="evenodd" d="M46 2.19922L46 11.1992L44 11.1992L44 4.19922L37 4.19922L37 2.19922L46 2.19922Z" fill="black"/>
<path fill-rule="evenodd" clip-rule="evenodd" d="M2 46.1992L2 37.1992L4 37.1992L4 44.1992L11 44.1992L11 46.1992L2 46.1992Z" fill="black"/>
<path fill-rule="evenodd" clip-rule="evenodd" d="M17.2928 18.9064L2.29282 3.9064L3.70703 2.49219L18.707 17.4922L17.2928 18.9064Z" fill="black"/>
<path fill-rule="evenodd" clip-rule="evenodd" d="M30.7072 29.492L45.7072 44.492L44.293 45.9062L29.293 30.9062L30.7072 29.492Z" fill="black"/>
<path fill-rule="evenodd" clip-rule="evenodd" d="M29.2928 17.492L44.2928 2.49204L45.707 3.90625L30.707 18.9062L29.2928 17.492Z" fill="black"/>
<path fill-rule="evenodd" clip-rule="evenodd" d="M18.7072 30.9064L3.70719 45.9064L2.29298 44.4922L17.293 29.4922L18.7072 30.9064Z" fill="black"/>
</svg>
