<svg width="48" height="49" viewBox="0 0 48 49" fill="none" xmlns="http://www.w3.org/2000/svg">
<path d="M23.0553 43.6001H20.9447C20.9447 33.786 20.9447 28.4041 18.5176 25.977C16.0905 23.5498 10.8141 23.6554 1 23.6554V21.5448C10.8141 21.5448 16.196 21.5448 18.6231 19.1177C21.0503 16.6906 20.9447 11.4142 20.9447 1.6001H23.0553C23.0553 11.4142 23.0553 16.7961 25.4824 19.2232C27.9095 21.6504 33.1859 21.5448 43.1055 21.6503V23.7609C33.2915 23.7609 27.9095 23.7609 25.4824 26.188C23.0553 28.6152 23.0553 33.786 23.0553 43.6001ZM16.407 22.6001C19.4673 23.4443 21.0503 25.1328 22 28.1931C22.8442 25.1328 24.5327 23.5498 27.593 22.6001C24.5327 21.7559 22.9497 20.0674 22 17.0071C21.1558 20.0674 19.4673 21.7559 16.407 22.6001Z" fill="#1A1A1A"/>
<path d="M39.437 47.4001H37.363C36.637 41.0742 36.3259 40.763 30 40.0371V37.9631C36.3259 37.2371 36.637 36.926 37.363 30.6001H39.437C40.163 36.926 40.4741 37.2371 46.8 37.9631V40.0371C40.4741 40.763 40.163 41.0742 39.437 47.4001ZM35.3926 39.0001C36.9481 39.6223 37.7778 40.4519 38.4 42.0075C39.0222 40.4519 39.8518 39.6223 41.4074 39.0001C39.8518 38.3779 39.0222 37.5482 38.4 35.9927C37.7778 37.5482 36.9481 38.3779 35.3926 39.0001Z" fill="#1A1A1A"/>
</svg>
