<svg width="48" height="48" viewBox="0 0 48 48" fill="none" xmlns="http://www.w3.org/2000/svg">
<path fill-rule="evenodd" clip-rule="evenodd" d="M4.82617 5.47834C4.82617 4.01359 6.01359 2.82617 7.47835 2.82617H10.7827C12.2474 2.82617 13.4349 4.01359 13.4349 5.47835V7.7827H17.2174V6.30444V5.30444H18.2174H29.7826H30.7826V6.30444V7.7827H34.5652V5.47834C34.5652 4.01359 35.7526 2.82617 37.2174 2.82617H40.5217C41.9865 2.82617 43.1739 4.01359 43.1739 5.47835V12.087C43.1739 13.5518 41.9865 14.7392 40.5217 14.7392H37.2174C35.7526 14.7392 34.5652 13.5518 34.5652 12.087V9.7827H30.7826V14.5653V15.5653H29.7826H26.6794L25 18.2227V34.8697H29.7826H30.7826V35.8697V37.5218H34.5652V35.2174C34.5652 33.7526 35.7526 32.5652 37.2174 32.5652H40.5217C41.9865 32.5652 43.1739 33.7526 43.1739 35.2174V41.8261C43.1739 43.2908 41.9865 44.4782 40.5217 44.4782H37.2174C35.7526 44.4782 34.5652 43.2908 34.5652 41.8261V39.5218H30.7826V41.174V42.174H29.7826H18.2174H17.2174V41.174V39.5218H13.4349V41.8261C13.4349 43.2908 12.2474 44.4782 10.7827 44.4782H7.47835C6.01359 44.4782 4.82617 43.2908 4.82617 41.8261V35.2174C4.82617 33.7526 6.01359 32.5652 7.47835 32.5652H10.7827C12.2474 32.5652 13.4349 33.7526 13.4349 35.2174V37.5218H17.2174V35.8697V34.8697H18.2174H23V18.2227L21.3207 15.5653H18.2174H17.2174V14.5653V9.7827H13.4349V12.087C13.4349 13.5518 12.2474 14.7392 10.7827 14.7392H7.47835C6.01359 14.7392 4.82617 13.5518 4.82617 12.087V5.47834ZM7.47835 4.82617C7.11816 4.82617 6.82617 5.11816 6.82617 5.47834V12.087C6.82617 12.4472 7.11816 12.7392 7.47835 12.7392H10.7827C11.1429 12.7392 11.4349 12.4472 11.4349 12.087V5.47835C11.4349 5.11816 11.1429 4.82617 10.7827 4.82617H7.47835ZM7.47835 34.5652C7.11816 34.5652 6.82617 34.8572 6.82617 35.2174V41.8261C6.82617 42.1862 7.11816 42.4782 7.47835 42.4782H10.7827C11.1429 42.4782 11.4349 42.1862 11.4349 41.8261V35.2174C11.4349 34.8572 11.1429 34.5652 10.7827 34.5652H7.47835ZM36.5652 5.47834C36.5652 5.11816 36.8572 4.82617 37.2174 4.82617H40.5217C40.8819 4.82617 41.1739 5.11816 41.1739 5.47835V12.087C41.1739 12.4472 40.8819 12.7392 40.5217 12.7392H37.2174C36.8572 12.7392 36.5652 12.4472 36.5652 12.087V5.47834ZM37.2174 34.5652C36.8572 34.5652 36.5652 34.8572 36.5652 35.2174V41.8261C36.5652 42.1862 36.8572 42.4782 37.2174 42.4782H40.5217C40.8819 42.4782 41.1739 42.1862 41.1739 41.8261V35.2174C41.1739 34.8572 40.8819 34.5652 40.5217 34.5652H37.2174ZM25.283 14.0311L24 16.0613L22.7171 14.0311L22.4227 13.5653H21.8717H19.2174V8.7827V7.30444H28.7826V8.7827V13.5653H26.1284H25.5774L25.283 14.0311ZM19.2174 38.5218V36.8697H24H28.7826V38.5218V40.174H19.2174V38.5218Z" fill="#1A1A1A"/>
</svg>
