<svg width="46" height="37" viewBox="0 0 46 37" fill="none" xmlns="http://www.w3.org/2000/svg">
<path d="M27.0311 35.3401C28.2559 35.313 29.2859 34.2047 29.2998 32.826C29.2859 31.4337 28.2698 30.3119 27.0311 30.3119C25.7506 30.2983 24.7345 31.4202 24.7763 32.826C24.7345 34.1911 25.7506 35.313 27.0311 35.3401ZM22.939 32.826C22.939 30.6227 24.7624 28.8521 27.0311 28.8521C29.258 28.8521 31.0813 30.6227 31.1231 32.826C31.0813 35.0021 29.258 36.7728 27.0311 36.7999C24.7484 36.7728 22.9251 35.0021 22.939 32.826Z" fill="#1A1A1A"/>
<path d="M35.6912 30.474V36.6645H34.0092V30.474H31.5947V29.0952H37.9972V30.474H35.6912Z" fill="#1A1A1A"/>
<path d="M41.7476 33.6918H42.8175L41.7476 30.9256L40.6776 33.6918H41.7476ZM40.1218 34.958L39.4826 36.6645H37.4399L40.6637 29.0952H42.8175L45.9301 36.6645H43.8875L43.2483 34.958H40.1218Z" fill="#1A1A1A"/>
<path d="M4.19587 30.474V36.6645H2.48487V30.474H0.13916V29.0952H6.54158V30.474H4.19587Z" fill="#1A1A1A"/>
<path d="M10.9829 35.3401C12.2216 35.313 13.2516 34.2047 13.2516 32.826C13.2516 31.4337 12.2356 30.3119 10.9829 30.3119C9.71632 30.2983 8.70027 31.4202 8.72811 32.826C8.68635 34.1911 9.7024 35.313 10.9829 35.3401ZM6.87695 32.826C6.87695 30.6227 8.70027 28.8521 10.969 28.8521C13.2098 28.8521 15.0332 30.6227 15.061 32.826C15.0332 35.0021 13.2098 36.7728 10.9829 36.7999C8.71419 36.7728 6.89087 35.0021 6.87695 32.826Z" fill="#1A1A1A"/>
<path d="M18.8524 36.6645H19.7045V33.7829L22.6868 29.0952H20.7765L18.8524 32.2939L17.052 29.0952H15.0317L18.0141 33.7829V36.6645H18.8524Z" fill="#1A1A1A"/>
<path d="M24.7202 23.6407C26.5157 22.0052 28.0049 18.0853 28.0049 13.1923C28.0049 12.922 28.0049 12.6787 28.0049 12.4083C34.7275 11.4486 37.4834 8.61013 37.9566 6.59614C39.4737 8.20463 40.3088 10.1916 40.1279 12.6381C39.7243 18.4232 33.28 23.1135 24.7202 23.6407ZM22.9943 19.8155C21.4493 19.8155 20.0297 16.5309 19.9183 12.6246C19.9183 12.6246 20.3498 12.6651 20.9344 12.6922C21.5468 12.7192 22.3262 12.7462 22.9108 12.7462H23.0639C23.6485 12.7462 24.4279 12.7327 25.0403 12.6922C25.6249 12.6651 26.0563 12.6246 26.0563 12.6246C25.9589 16.5444 24.5253 19.8155 22.9943 19.8155ZM5.86069 12.6516C5.69367 10.2051 6.52878 8.21814 8.03197 6.60966C8.49128 8.62365 11.261 11.4486 17.9837 12.4218C17.9697 12.6787 17.9837 12.9355 17.9837 13.2058C17.9837 18.0988 19.459 22.0322 21.2545 23.6542C12.7086 23.1135 6.26433 18.4232 5.86069 12.6516ZM25.778 9.52926C24.8872 9.61036 23.9407 9.65091 22.9943 9.65091C22.0478 9.65091 21.0875 9.61036 20.2106 9.52926C20.6838 6.77186 21.7695 4.83897 22.9943 4.83897H23.0082C24.2052 4.83897 25.2908 6.77186 25.778 9.52926ZM22.9804 1.63552C29.3968 1.63552 34.4492 3.51434 34.4492 5.64997C34.4492 7.27198 31.6794 8.67771 27.6848 9.29948C26.975 5.10931 25.1377 2.12212 22.9943 2.1086C20.8509 2.12212 19.0136 5.10931 18.3038 9.29948C14.2953 8.67771 11.5394 7.28549 11.5394 5.64997C11.5255 3.51434 16.5779 1.63552 22.9804 1.63552ZM22.9943 0C11.957 0.0540667 2.9239 5.51481 3.00741 12.6787C3.077 19.829 12.0822 25.1275 22.9943 25.1275H23.0082C33.9203 25.1275 42.9255 19.829 42.9951 12.6787C43.0508 5.51481 34.0177 0.0540667 22.9943 0Z" fill="#1A1A1A"/>
</svg>
